<svg width="237" height="44" viewBox="0 0 237 44" fill="none" xmlns="http://www.w3.org/2000/svg">
<path d="M27 40C36.3888 40 44 31.7173 44 21.5C44 11.2827 36.3888 3 27 3C17.6112 3 10 11.2827 10 21.5C10 31.7173 17.6112 40 27 40Z" fill="#346F6B" stroke="black" stroke-width="2"/>
<g clip-path="url(#clip0_2_84)">
<rect width="10" height="29" transform="translate(12.4766 26.4316) rotate(-89.73)" fill="#5ED953"/>
<path d="M27.4421 18.4482C28.0807 19.0023 28.5455 19.6293 28.8109 20.2947L28.824 20.3317C29.6146 19.2369 31.3255 18.4934 33.3084 18.4997L41.5141 18.5384L41.5224 16.7745L33.3179 16.7359C32.2025 16.7317 31.1002 16.882 30.0873 17.1763C29.0743 17.4707 28.175 17.9021 27.4518 18.4406L27.4421 18.4474L27.4421 18.4482Z" fill="black"/>
<path d="M26.5374 24.7579C25.899 24.2037 25.4342 23.5767 25.1686 22.9114L25.1555 22.8744C24.3649 23.9691 22.654 24.7126 20.6711 24.7064L12.4835 24.6678L12.4752 26.4316L20.6652 26.4702C21.7799 26.474 22.8816 26.3236 23.8939 26.0292C24.9061 25.7349 25.8048 25.3037 26.5277 24.7655L26.5374 24.7586L26.5374 24.7579Z" fill="black"/>
<path d="M12.5144 18.4079C21.1901 18.4487 20.7576 18.4267 21.3603 18.4795C22.5364 18.5874 23.6134 18.9623 24.3925 19.5351C25.1715 20.1078 25.6001 20.8397 25.599 21.5957L25.6063 21.5957C25.6075 22.8921 26.4137 24.1379 27.8492 25.0614C29.2847 25.9849 31.233 26.5113 33.2693 26.5257L41.4762 26.5644L41.4846 24.8006L33.2801 24.7619C31.9793 24.7534 30.7345 24.4174 29.8176 23.8275C28.9007 23.2375 28.3862 22.4415 28.3866 21.6135L28.3866 21.6127L28.3793 21.6126C28.3797 20.316 27.574 19.0696 26.1382 18.1459C24.7023 17.2221 22.7531 16.6961 20.7163 16.6826L12.5227 16.644L12.5144 18.4079Z" fill="black"/>
<path d="M13.639 23.8609L13.6609 19.2225C13.6611 19.174 13.6463 19.1259 13.6174 19.081C13.5884 19.0361 13.5459 18.9952 13.4922 18.9606C13.4385 18.9261 13.3747 18.8986 13.3044 18.8797C13.2341 18.8608 13.1588 18.8509 13.0826 18.8505C12.931 18.8498 12.7855 18.8875 12.678 18.9552C12.5705 19.0229 12.5098 19.1152 12.5094 19.2117L12.4875 23.8555C12.4768 23.9075 12.4836 23.9605 12.5076 24.0108C12.5316 24.0611 12.5721 24.1076 12.6265 24.1472C12.6809 24.1868 12.7478 24.2187 12.823 24.2406C12.8981 24.2625 12.9796 24.2739 13.062 24.2742C13.1445 24.2745 13.2261 24.2636 13.3012 24.2422C13.3764 24.2208 13.4435 24.1894 13.498 24.1502C13.5524 24.1109 13.5931 24.0646 13.6172 24.0145C13.6413 23.9644 13.6484 23.9115 13.6378 23.8594L13.6378 23.8609L13.639 23.8609Z" fill="black"/>
<path d="M16.3578 23.8737L16.3796 19.2353C16.3801 19.1374 16.3194 19.0432 16.211 18.9734C16.1025 18.9037 15.9552 18.8641 15.8014 18.8634C15.6476 18.8626 15.4998 18.9008 15.3907 18.9696C15.2817 19.0383 15.2201 19.1319 15.2196 19.2299L15.1978 23.8683C15.1973 23.9662 15.258 24.0604 15.3664 24.1301C15.4749 24.1999 15.6222 24.2395 15.776 24.2402C15.9299 24.2409 16.0776 24.2027 16.1867 24.134C16.2958 24.0653 16.3573 23.9717 16.3578 23.8737V23.8737Z" fill="black"/>
<path d="M21.2493 18.979C21.0976 18.9785 20.952 19.0163 20.8445 19.0842C20.7371 19.152 20.6765 19.2444 20.676 19.3409L20.6549 23.8109C20.6743 23.899 20.7429 23.9799 20.848 24.0387C20.9532 24.0975 21.0879 24.1303 21.2276 24.1312C21.3672 24.132 21.5025 24.1008 21.6086 24.0433C21.7146 23.9857 21.7845 23.9057 21.8053 23.8178L21.8263 19.3494C21.8268 19.2515 21.7661 19.1573 21.6577 19.0876C21.5492 19.0178 21.4019 18.9782 21.2481 18.9775L21.2493 18.979Z" fill="black"/>
<path d="M23.3 22.7964C23.2995 22.8943 23.3602 22.9885 23.4686 23.0583C23.577 23.1281 23.7244 23.1677 23.8782 23.1684C24.032 23.1691 24.1797 23.1309 24.2888 23.0622C24.3979 22.9934 24.4595 22.8998 24.4599 22.8019L24.4714 20.3796C24.4718 20.2817 24.4112 20.1875 24.3027 20.1177C24.1943 20.048 24.0469 20.0084 23.8931 20.0076C23.7393 20.0069 23.5916 20.0451 23.4825 20.1139C23.3734 20.1826 23.3118 20.2762 23.3114 20.3741L23.3 22.7964Z" fill="black"/>
<path d="M40.3285 19.3436L40.3067 23.982C40.3062 24.0799 40.3669 24.1741 40.4753 24.2439C40.5838 24.3136 40.7311 24.3532 40.8849 24.3539C41.0388 24.3547 41.1865 24.3164 41.2956 24.2477C41.4047 24.179 41.4662 24.0854 41.4667 23.9874L41.4885 19.349C41.489 19.2511 41.4283 19.1569 41.3199 19.0871C41.2114 19.0174 41.0641 18.9778 40.9103 18.9771C40.7571 18.9777 40.6107 19.0164 40.502 19.0848C40.3934 19.1533 40.3312 19.2461 40.3285 19.3436V19.3436Z" fill="black"/>
<path d="M37.6122 19.3307L37.5904 23.9692C37.5899 24.0671 37.6506 24.1613 37.759 24.231C37.8675 24.3008 38.0148 24.3404 38.1686 24.3411C38.3224 24.3418 38.4701 24.3036 38.5792 24.2349C38.6883 24.1662 38.7499 24.0725 38.7503 23.9746L38.7722 19.3362C38.7727 19.2383 38.712 19.1441 38.6036 19.0743C38.4951 19.0046 38.3478 18.965 38.194 18.9642C38.0401 18.9635 37.8924 19.0017 37.7833 19.0705C37.6742 19.1392 37.6127 19.2328 37.6122 19.3307V19.3307Z" fill="black"/>
<path d="M34.8863 19.3179L34.8644 23.9563C34.8639 24.0542 34.9246 24.1484 35.0331 24.2182C35.1415 24.2879 35.2888 24.3275 35.4427 24.3283C35.5965 24.329 35.7442 24.2908 35.8533 24.2221C35.9624 24.1533 36.0239 24.0597 36.0244 23.9618L36.0463 19.3234C36.0467 19.2254 35.9861 19.1312 35.8776 19.0615C35.7692 18.9917 35.6218 18.9521 35.468 18.9514C35.3149 18.9521 35.1684 18.9907 35.0598 19.0592C34.9512 19.1276 34.8889 19.2204 34.8863 19.3179Z" fill="black"/>
<path d="M32.7267 24.2324C33.0469 24.2339 33.3075 24.0698 33.3085 23.8659L33.3295 19.3998C33.33 19.3019 33.2693 19.2077 33.1609 19.1379C33.0524 19.0682 32.9051 19.0286 32.7512 19.0279C32.5974 19.0271 32.4497 19.0653 32.3406 19.1341C32.2315 19.2028 32.17 19.2964 32.1695 19.3943L32.1485 23.8604C32.148 23.9584 32.2087 24.0526 32.3171 24.1223C32.4256 24.1921 32.5729 24.2317 32.7267 24.2324Z" fill="black"/>
<path d="M30.5927 20.4092C30.5932 20.3113 30.5325 20.2171 30.424 20.1473C30.3156 20.0776 30.1683 20.038 30.0144 20.0373C29.8606 20.0365 29.7129 20.0747 29.6038 20.1435C29.4947 20.2122 29.4332 20.3058 29.4327 20.4037L29.4213 22.8253C29.4208 22.9232 29.4815 23.0174 29.5899 23.0871C29.6984 23.1569 29.8457 23.1965 29.9996 23.1972C30.1534 23.1979 30.3011 23.1597 30.4102 23.091C30.5193 23.0223 30.5808 22.9287 30.5813 22.8307L30.5927 20.4092Z" fill="black"/>
</g>
<g clip-path="url(#clip1_2_84)">
<rect width="10" height="29" transform="translate(22 7)" fill="#65D03F"/>
<path d="M30.0539 21.9277C29.5028 22.569 28.878 23.0368 28.2139 23.3052L28.1769 23.3185C29.2754 24.1039 30.0269 25.8113 30.03 27.7942V36H31.7939V27.7954C31.7928 26.6801 31.6373 25.5784 31.3382 24.5669C31.039 23.5554 30.6034 22.6581 30.0616 21.9374L30.0546 21.9277H30.0539Z" fill="black"/>
<path d="M23.74 21.0528C24.2911 20.4117 24.9159 19.944 25.58 19.6753L25.6169 19.662C24.5185 18.8766 23.7669 17.1692 23.7638 15.1863V6.99866H22V15.1887C22.0014 16.3035 22.1571 17.4044 22.4562 18.4153C22.7553 19.4261 23.1907 20.3228 23.7323 21.0431L23.7392 21.0528H23.74Z" fill="black"/>
<path d="M30.0238 7C30.0238 15.6758 30.0438 15.2433 29.9938 15.8462C29.8915 17.0228 29.5217 18.1015 28.9526 18.8833C28.3836 19.6651 27.6537 20.0971 26.8977 20.0995V20.1068C25.6013 20.1141 24.3594 20.9262 23.4426 22.366C22.5259 23.8059 22.0087 25.7566 22.0038 27.793V36H23.7677V27.7954C23.7701 26.4946 24.1002 25.2482 24.6858 24.3286C25.2715 23.4089 26.065 22.8907 26.8931 22.8872H26.8938V22.8799C28.1905 22.8742 29.433 22.0626 30.35 20.6224C31.267 19.1822 31.7838 17.2306 31.7877 15.1937V7H30.0238Z" fill="black"/>
<path d="M24.5762 8.15036H29.2146C29.2631 8.15036 29.3111 8.13536 29.3559 8.10621C29.4007 8.07706 29.4414 8.03434 29.4757 7.98048C29.51 7.92662 29.5372 7.86268 29.5558 7.79232C29.5743 7.72195 29.5839 7.64653 29.5839 7.57036C29.5839 7.41878 29.5455 7.2734 29.4773 7.16622C29.4091 7.05903 29.3165 6.99882 29.22 6.99882H24.5762C24.5241 6.98836 24.4712 6.99548 24.421 7.01969C24.3708 7.0439 24.3245 7.08465 24.2851 7.13921C24.2457 7.19377 24.2142 7.2609 24.1927 7.33611C24.1711 7.41132 24.16 7.49288 24.1602 7.57536C24.1603 7.65783 24.1716 7.73932 24.1933 7.81439C24.2151 7.88946 24.2468 7.95638 24.2863 8.01068C24.3258 8.06498 24.3722 8.10542 24.4225 8.1293C24.4727 8.15318 24.5257 8.15995 24.5777 8.14915H24.5762V8.15036Z" fill="black"/>
<path d="M24.5761 10.8691H29.2146C29.3125 10.8691 29.4064 10.808 29.4757 10.6992C29.5449 10.5905 29.5838 10.4429 29.5838 10.2891C29.5838 10.1353 29.5449 9.98776 29.4757 9.87898C29.4064 9.77021 29.3125 9.70911 29.2146 9.70911H24.5761C24.4782 9.70911 24.3843 9.77021 24.3151 9.87898C24.2458 9.98776 24.2069 10.1353 24.2069 10.2891C24.2069 10.4429 24.2458 10.5905 24.3151 10.6992C24.3843 10.808 24.4782 10.8691 24.5761 10.8691V10.8691Z" fill="black"/>
<path d="M29.4939 15.7375C29.4937 15.5858 29.4551 15.4404 29.3868 15.3333C29.3184 15.2261 29.2258 15.1659 29.1292 15.1659H24.6592C24.5712 15.1857 24.4907 15.2546 24.4324 15.3601C24.3741 15.4655 24.3419 15.6004 24.3417 15.74C24.3415 15.8797 24.3733 16.0148 24.4314 16.1206C24.4894 16.2264 24.5697 16.2959 24.6577 16.3163H29.1262C29.2241 16.3163 29.318 16.2552 29.3872 16.1464C29.4565 16.0376 29.4954 15.8901 29.4954 15.7363L29.4939 15.7375Z" fill="black"/>
<path d="M25.6861 17.8061C25.5882 17.8061 25.4943 17.8672 25.425 17.976C25.3558 18.0848 25.3169 18.2323 25.3169 18.3861C25.3169 18.5399 25.3558 18.6875 25.425 18.7962C25.4943 18.905 25.5882 18.9661 25.6861 18.9661H28.1084C28.2064 18.9661 28.3003 18.905 28.3695 18.7962C28.4388 18.6875 28.4777 18.5399 28.4777 18.3861C28.4777 18.2323 28.4388 18.0848 28.3695 17.976C28.3003 17.8672 28.2064 17.8061 28.1084 17.8061H25.6861Z" fill="black"/>
<path d="M29.2192 34.8182H24.5808C24.4829 34.8182 24.3889 34.8793 24.3197 34.9881C24.2504 35.0969 24.2115 35.2444 24.2115 35.3982C24.2115 35.5521 24.2504 35.6996 24.3197 35.8084C24.3889 35.9171 24.4829 35.9782 24.5808 35.9782H29.2192C29.3172 35.9782 29.4111 35.9171 29.4803 35.8084C29.5496 35.6996 29.5885 35.5521 29.5885 35.3982C29.5871 35.2451 29.5477 35.0988 29.4788 34.9905C29.4098 34.8822 29.3167 34.8204 29.2192 34.8182V34.8182Z" fill="black"/>
<path d="M29.2192 32.1019H24.5808C24.4829 32.1019 24.3889 32.163 24.3197 32.2718C24.2504 32.3806 24.2115 32.5281 24.2115 32.6819C24.2115 32.8358 24.2504 32.9833 24.3197 33.0921C24.3889 33.2008 24.4829 33.2619 24.5808 33.2619H29.2192C29.3172 33.2619 29.4111 33.2008 29.4803 33.0921C29.5496 32.9833 29.5885 32.8358 29.5885 32.6819C29.5885 32.5281 29.5496 32.3806 29.4803 32.2718C29.4111 32.163 29.3172 32.1019 29.2192 32.1019V32.1019Z" fill="black"/>
<path d="M29.2192 29.3759H24.5808C24.4829 29.3759 24.3889 29.437 24.3197 29.5458C24.2504 29.6546 24.2115 29.8021 24.2115 29.9559C24.2115 30.1097 24.2504 30.2573 24.3197 30.366C24.3889 30.4748 24.4829 30.5359 24.5808 30.5359H29.2192C29.3172 30.5359 29.4111 30.4748 29.4803 30.366C29.5496 30.2573 29.5885 30.1097 29.5885 29.9559C29.5871 29.8028 29.5477 29.6565 29.4788 29.5482C29.4098 29.4399 29.3167 29.3781 29.2192 29.3759Z" fill="black"/>
<path d="M24.2946 27.2396C24.2946 27.5598 24.46 27.8196 24.6638 27.8196H29.13C29.2279 27.8196 29.3218 27.7585 29.3911 27.6497C29.4603 27.5409 29.4992 27.3934 29.4992 27.2396C29.4992 27.0858 29.4603 26.9382 29.3911 26.8295C29.3218 26.7207 29.2279 26.6596 29.13 26.6596H24.6638C24.5659 26.6596 24.472 26.7207 24.4028 26.8295C24.3335 26.9382 24.2946 27.0858 24.2946 27.2396Z" fill="black"/>
<path d="M28.1077 25.0876C28.2056 25.0876 28.2995 25.0264 28.3687 24.9177C28.438 24.8089 28.4769 24.6614 28.4769 24.5076C28.4769 24.3537 28.438 24.2062 28.3687 24.0974C28.2995 23.9887 28.2056 23.9276 28.1077 23.9276H25.6861C25.5882 23.9276 25.4943 23.9887 25.425 24.0974C25.3558 24.2062 25.3169 24.3537 25.3169 24.5076C25.3169 24.6614 25.3558 24.8089 25.425 24.9177C25.4943 25.0264 25.5882 25.0876 25.6861 25.0876H28.1077Z" fill="black"/>
</g>
<defs>
<clipPath id="clip0_2_84">
<rect width="10" height="29" fill="white" transform="translate(12.4766 26.4316) rotate(-89.73)"/>
</clipPath>
<clipPath id="clip1_2_84">
<rect width="10" height="29" fill="white" transform="translate(22 7)"/>
</clipPath>
</defs>
</svg>
